<svg xmlns="http://www.w3.org/2000/svg" xmlns:xlink="http://www.w3.org/1999/xlink" xmlns:lucid="lucid" width="3282" height="882.53"><g transform="translate(461 -790.0051648947588)" lucid:page-tab-id="HWEp-vi-RSFO"><path d="M-440 811H676.18v816H-440z" stroke="#fff" stroke-width="2" fill="#6db1ff"/><path d="M-440 906.98H676.18M-440 1267.22H676.18" stroke="#fff" stroke-width="2" fill="none"/><use xlink:href="#a" transform="matrix(1,0,0,1,-432,819.0051648947588) translate(414.53873697916697 60.4161241319444)"/><use xlink:href="#b" transform="matrix(1,0,0,1,-428,914.9823784364253) translate(342.3050130208337 152.92751736111114)"/><use xlink:href="#c" transform="matrix(1,0,0,1,-428,914.9823784364253) translate(543.8340928819445 152.92751736111114)"/><use xlink:href="#d" transform="matrix(1,0,0,1,-428,914.9823784364253) translate(579.6719835069443 152.92751736111114)"/><use xlink:href="#e" transform="matrix(1,0,0,1,-428,914.9823784364253) translate(327.84499782986154 232.90473090277766)"/><use xlink:href="#c" transform="matrix(1,0,0,1,-428,914.9823784364253) translate(558.2941080729166 232.90473090277766)"/><use xlink:href="#f" transform="matrix(1,0,0,1,-428,914.9823784364253) translate(594.1319986979165 232.90473090277766)"/><use xlink:href="#g" transform="matrix(1,0,0,1,-428,1275.2175586121407) translate(320.55593532986154 152.92751736111114)"/><use xlink:href="#h" transform="matrix(1,0,0,1,-428,1275.2175586121407) translate(4.899034288195594 232.90473090277766)"/><path d="M681.18 1219h666.5a.4.4 0 0 0 .4-.4.4.4 0 0 1 .4-.4H2015" stroke="#fff" stroke-width="8" fill="none"/><path d="M681.28 1222.98h-4.1v-7.95h4.1zM2019 1222.17h-4.1v-7.95h4.1z" stroke="#fff" stroke-width=".05" fill="#fff"/><path d="M2020 835.54h780v816h-780z" stroke="#fff" stroke-width="2" fill="#6db1ff"/><path d="M2020 931.52h780m-780 360.23h780" stroke="#fff" stroke-width="2" fill="none"/><use xlink:href="#i" transform="matrix(1,0,0,1,2028,843.5397946764292) translate(302.12402343750017 60.4161241319444)"/><use xlink:href="#b" transform="matrix(1,0,0,1,2032,939.5170082180957) translate(173.8050130208337 152.92751736111114)"/><use xlink:href="#c" transform="matrix(1,0,0,1,2032,939.5170082180957) translate(375.33409288194446 152.92751736111114)"/><use xlink:href="#d" transform="matrix(1,0,0,1,2032,939.5170082180957) translate(411.1719835069444 152.92751736111114)"/><use xlink:href="#e" transform="matrix(1,0,0,1,2032,939.5170082180957) translate(159.34499782986154 232.90473090277766)"/><use xlink:href="#c" transform="matrix(1,0,0,1,2032,939.5170082180957) translate(389.79410807291663 232.90473090277766)"/><use xlink:href="#f" transform="matrix(1,0,0,1,2032,939.5170082180957) translate(425.6319986979166 232.90473090277766)"/><g><use xlink:href="#j" transform="matrix(1,0,0,1,2032,1299.7521883938111) translate(80.07644314236171 152.92751736111114)"/><use xlink:href="#k" transform="matrix(1,0,0,1,2032,1299.7521883938111) translate(35.380316840278454 232.90473090277766)"/></g><path d="M676.18 1060h282.54v142.65H676.18z" fill="none"/><g><use xlink:href="#l" transform="matrix(1,0,0,1,676.1810064320589,1060) translate(62.53395061728409 84.87777777777775)"/><use xlink:href="#m" transform="matrix(1,0,0,1,676.1810064320589,1060) translate(120.13271604938275 84.87777777777775)"/></g><path d="M1780 1080h240v113.6h-240z" fill="none"/><g><use xlink:href="#l" transform="matrix(1,0,0,1,1780,1080) translate(41.53395061728409 70.37777777777775)"/><use xlink:href="#m" transform="matrix(1,0,0,1,1780,1080) translate(99.13271604938275 70.37777777777775)"/></g><path d="M979.36 1060h780v100.52h-780z" fill="none"/><g><use xlink:href="#n" transform="matrix(1,0,0,1,979.3583603259146,1060) translate(106.46543209876597 63.87777777777775)"/><use xlink:href="#o" transform="matrix(1,0,0,1,979.3583603259146,1060) translate(503.15370370370346 63.87777777777775)"/></g><defs><path d="M1151-1228c-5 98-22 200-38 288h-75c-17-67-17-142-52-186-8-10-19-14-33-14H706v995c11 31 44 40 80 53 20 7 46 13 77 19V0H300v-73c62-13 113-25 149-57 5-5 7-10 7-15v-995H202c-54 11-63 62-87 111-13 26-24 59-39 98L3-958c8-100 24-211 40-302h1070" id="p"/><path d="M575-586c-52 3-101 0-145-10v462c0 8 10 18 32 30s57 22 106 31V0H43v-73c45-9 80-20 103-31s34-21 34-30v-1023c-46 7-93 12-137 19l-13-92c295-67 842-131 974 124 18 37 28 76 28 119 0 205-123 310-279 367l315 436c31 48 78 71 161 59l15 73c-85 26-183 60-284 66-41 2-83-27-98-55zm205-370c0-187-150-240-350-226v476c33 6 54 7 89 7 174 2 261-90 261-257" id="q"/><path d="M747-550l-165-465-150 465h315zM392-430l-96 289c-7 21 1 36 24 45s62 17 117 23V0H0v-73c73-17 133-13 151-68l349-1066c60-51 139-84 222-110l420 1176c16 49 64 60 124 68V0H769v-73c52-3 87-10 105-20s24-26 17-48L789-430H392" id="r"/><path d="M63 0v-73c45-9 80-20 103-31s34-21 34-30v-991c0-8-10-18-32-30s-57-23-105-32v-73h525v73c-45 9-80 20-103 31s-35 22-35 31v991c0 8 11 18 33 30s57 22 105 31V0H63" id="s"/><path d="M43 0v-73c49-6 84-15 105-28s32-24 32-33v-980c-43-41-89-65-137-73v-73c101 1 207-4 303 2 36 15 48 43 72 76l612 848v-791c-20-45-79-50-137-62v-73h425v73c-48 7-83 16-105 29s-33 24-33 33V30c-111-7-195-43-239-104L330-920v786c21 43 79 50 138 61V0H43" id="t"/><path d="M733-120c149 2 180-100 223-210l73 26c-9 101-22 215-41 304H43v-73c45-9 80-20 103-31s34-21 34-30v-991c0-8-10-18-32-30s-57-23-105-32v-73h881l40 32c-8 91-21 200-41 278h-75c-3-62-12-110-25-142s-32-48-57-48H430v405h398l33 35c-26 43-55 94-92 126-60-70-209-53-339-55v445c3 49 47 53 98 60 50 7 142 4 205 4" id="u"/><g id="a"><use transform="matrix(0.033745659722222154,0,0,0.033745659722222154,0,0)" xlink:href="#p"/><use transform="matrix(0.033745659722222154,0,0,0.033745659722222154,40.08984374999992,0)" xlink:href="#q"/><use transform="matrix(0.033745659722222154,0,0,0.033745659722222154,81.90071614583317,0)" xlink:href="#r"/><use transform="matrix(0.033745659722222154,0,0,0.033745659722222154,125.33138020833309,0)" xlink:href="#s"/><use transform="matrix(0.033745659722222154,0,0,0.033745659722222154,147.94097222222194,0)" xlink:href="#t"/><use transform="matrix(0.033745659722222154,0,0,0.033745659722222154,193.80132378472186,0)" xlink:href="#u"/><use transform="matrix(0.033745659722222154,0,0,0.033745659722222154,230.1116536458329,0)" xlink:href="#q"/></g><path d="M810-603c-12 37-30 79-46 112H506v266c-32 16-74 31-113 39l-32-30v-275H85l-32-31c11-38 30-78 46-112h262v-268c37-12 75-26 113-37l32 31v274h271" id="v"/><path d="M764-137c215-118 232-634 88-861-52-83-127-162-248-162-247 0-296 255-296 519 0 222 74 401 204 495 73 53 173 53 252 9zm295-954c108 134 178 390 117 620C1115-240 973-70 755 5 628 49 478 35 371-23 179-126 55-328 55-612c0-306 150-515 359-623 138-71 341-75 475-1 67 36 123 86 170 145" id="w"/><path d="M729-120c148 2 174-101 217-210l73 26c-10 100-22 215-41 304H43v-73c45-9 80-20 103-31s34-21 34-30v-991c0-8-10-18-32-30s-57-23-105-32v-73h525v73c-45 9-80 20-103 31s-35 22-35 31v931c9 77 99 74 186 74h113" id="x"/><g id="b"><use transform="matrix(0.033745659722222154,0,0,0.033745659722222154,0,0)" xlink:href="#v"/><use transform="matrix(0.033745659722222154,0,0,0.033745659722222154,29.122504340277718,0)" xlink:href="#q"/><use transform="matrix(0.033745659722222154,0,0,0.033745659722222154,70.93337673611097,0)" xlink:href="#w"/><use transform="matrix(0.033745659722222154,0,0,0.033745659722222154,113.92534722222202,0)" xlink:href="#x"/><use transform="matrix(0.033745659722222154,0,0,0.033745659722222154,149.12207031249974,0)" xlink:href="#x"/></g><path d="M315-960c87 0 144 46 144 135 0 110-72 171-183 171-89 0-145-44-145-135 0-109 76-171 184-171zm0 694c87 0 144 46 144 135 0 110-72 171-183 171-89 0-145-44-145-135 0-109 76-171 184-171" id="y"/><use transform="matrix(0.033745659722222154,0,0,0.033745659722222154,0,0)" xlink:href="#y" id="c"/><path d="M548-164c182 81 360-23 471-115 19 17 36 48 52 68C944-89 816 30 586 30c-256 0-407-160-486-356-64-157-57-393 4-550 101-260 325-453 694-406 98 12 191 44 254 92-9 71-56 133-86 187-7 12-14 21-19 26l-65-14c-57-98-128-167-260-167-252 0-314 258-314 535 0 231 84 390 240 459" id="z"/><path d="M43 0v-73c45-9 80-20 103-31s34-21 34-30v-991c0-8-10-18-32-30s-57-23-105-32v-73h525v73c-45 9-80 20-103 31s-35 22-35 31v405h520v-405c0-8-10-18-32-30s-57-23-105-32v-73h525v73c-45 9-80 20-103 31s-35 22-35 31v991c0 8 11 18 33 30s57 22 105 31V0H813v-73c45-9 80-20 103-31s34-21 34-30v-466H430v466c0 8 10 18 32 30s57 22 106 31V0H43" id="A"/><g id="d"><use transform="matrix(0.033745659722222154,0,0,0.033745659722222154,0,0)" xlink:href="#z"/><use transform="matrix(0.033745659722222154,0,0,0.033745659722222154,38.57128906249992,0)" xlink:href="#A"/><use transform="matrix(0.033745659722222154,0,0,0.033745659722222154,85.78146701388872,0)" xlink:href="#r"/><use transform="matrix(0.033745659722222154,0,0,0.033745659722222154,129.21213107638863,0)" xlink:href="#q"/></g><path d="M200-1152c-37-23-85-34-137-35v-73h346c47 5 54 46 71 84l368 835c133-294 261-590 397-881 10-22 19-38 49-38h339v73c-46 1-90 13-128 28l10 1025c0 8 13 18 37 30s60 22 108 31V0h-522v-73c45-9 82-20 108-31s39-21 39-30l-8-813L853 0h-94L343-945l-8 811c0 8 11 18 33 30s57 22 105 31V0H53v-73c46-9 80-20 103-31s34-21 34-30" id="B"/><g id="e"><use transform="matrix(0.033745659722222154,0,0,0.033745659722222154,0,0)" xlink:href="#v"/><use transform="matrix(0.033745659722222154,0,0,0.033745659722222154,29.122504340277718,0)" xlink:href="#t"/><use transform="matrix(0.033745659722222154,0,0,0.033745659722222154,74.98285590277763,0)" xlink:href="#r"/><use transform="matrix(0.033745659722222154,0,0,0.033745659722222154,118.41351996527754,0)" xlink:href="#B"/><use transform="matrix(0.033745659722222154,0,0,0.033745659722222154,176.92849392361074,0)" xlink:href="#u"/></g><g id="f"><use transform="matrix(0.033745659722222154,0,0,0.033745659722222154,0,0)" xlink:href="#z"/><use transform="matrix(0.033745659722222154,0,0,0.033745659722222154,38.57128906249992,0)" xlink:href="#A"/><use transform="matrix(0.033745659722222154,0,0,0.033745659722222154,85.78146701388872,0)" xlink:href="#r"/><use transform="matrix(0.033745659722222154,0,0,0.033745659722222154,129.21213107638863,0)" xlink:href="#q"/></g><path d="M578-1290c408 0 643 208 643 614 0 370-167 586-463 660C711-4 664 0 619 0H43v-73c45-9 80-20 103-31s34-21 34-30v-1023l-137 19-13-92c159-36 354-60 548-60zm375 653c-1-354-149-573-523-545v1015c7 64 80 60 152 60 213 0 307-172 354-361 12-50 17-106 17-169" id="C"/><path d="M366-651c0 389 93 697 289 891l-54 75C291 148 106-154 106-623c0-475 196-791 495-977l54 75c-188 194-289 489-289 874" id="D"/><path d="M80-1599c309 168 495 468 495 937 0 476-196 792-495 978l-54-75C214 47 315-248 315-634c0-388-93-697-289-890" id="E"/><g id="g"><use transform="matrix(0.033745659722222154,0,0,0.033745659722222154,0,0)" xlink:href="#v"/><use transform="matrix(0.033745659722222154,0,0,0.033745659722222154,29.122504340277718,0)" xlink:href="#r"/><use transform="matrix(0.033745659722222154,0,0,0.033745659722222154,72.55316840277763,0)" xlink:href="#C"/><use transform="matrix(0.033745659722222154,0,0,0.033745659722222154,116.55750868055532,0)" xlink:href="#C"/><use transform="matrix(0.033745659722222154,0,0,0.033745659722222154,160.561848958333,0)" xlink:href="#q"/><use transform="matrix(0.033745659722222154,0,0,0.033745659722222154,202.37272135416626,0)" xlink:href="#u"/><use transform="matrix(0.033745659722222154,0,0,0.033745659722222154,238.6830512152773,0)" xlink:href="#z"/><use transform="matrix(0.033745659722222154,0,0,0.033745659722222154,277.2543402777772,0)" xlink:href="#w"/><use transform="matrix(0.033745659722222154,0,0,0.033745659722222154,320.24631076388823,0)" xlink:href="#q"/><use transform="matrix(0.033745659722222154,0,0,0.033745659722222154,362.0571831597215,0)" xlink:href="#C"/><use transform="matrix(0.033745659722222154,0,0,0.033745659722222154,406.0615234374992,0)" xlink:href="#D"/><use transform="matrix(0.033745659722222154,0,0,0.033745659722222154,428.97482638888806,0)" xlink:href="#E"/></g><path d="M1328-1187c-71 18-136 14-155 66L797-82C765-17 678 9 602 30L147-1121c-24-45-64-56-134-66v-73h510v73c-53 4-89 11-106 21s-22 24-15 43l325 837 297-835c13-42-24-47-59-55-18-4-41-8-68-11v-73h431v73" id="F"/><path d="M1093-169C944-46 755 79 489 14 221-51 55-249 55-582c0-346 170-557 421-660 197-81 486-47 619 54-4 69-58 131-89 182-8 12-16 20-22 25l-63-14c-66-94-139-170-293-170-187 0-263 170-303 345-27 119-22 309 14 413 53 156 146 272 337 279 72 3 129-14 177-37v-305c-2-43-34-49-73-62-21-7-51-13-88-20v-73h498v73c-58 15-97 31-97 82v301" id="G"/><path d="M1018-1020c-3 161-94 257-228 297 153 26 262 111 314 237 37 89 33 204-10 284C1014-55 841 14 612 14 418 14 240 0 43 0v-73c45-9 80-20 103-31s34-21 34-30v-1031c-47 5-95 12-137 19l-13-84c290-64 798-126 954 97 22 33 34 71 34 113zM867-337c0-192-103-300-302-302-57 0-90 6-135 13v499c0 5 2 9 5 13 38 16 86 21 140 21 178 3 292-80 292-244zM765-971c2-183-146-218-335-212v443c197 2 333-46 335-231" id="H"/><path d="M0-1242c82-11 176-28 264-28 110 0 129 88 178 160 89 130 167 285 238 431l234-442c10-17 6-31-10-41s-50-18-101-25v-73h418v73c-74 17-122 18-148 66L752-523v378c11 31 44 40 80 53 20 7 47 13 78 19V0H345v-73c61-13 113-25 149-57 6-5 8-10 8-15v-384c-96-207-216-417-341-592-29-41-83-48-157-48" id="I"/><g id="h"><use transform="matrix(0.033745659722222154,0,0,0.033745659722222154,0,0)" xlink:href="#v"/><use transform="matrix(0.033745659722222154,0,0,0.033745659722222154,29.122504340277718,0)" xlink:href="#z"/><use transform="matrix(0.033745659722222154,0,0,0.033745659722222154,67.69379340277764,0)" xlink:href="#w"/><use transform="matrix(0.033745659722222154,0,0,0.033745659722222154,110.68576388888864,0)" xlink:href="#t"/><use transform="matrix(0.033745659722222154,0,0,0.033745659722222154,156.54611545138857,0)" xlink:href="#F"/><use transform="matrix(0.033745659722222154,0,0,0.033745659722222154,202.47395833333292,0)" xlink:href="#u"/><use transform="matrix(0.033745659722222154,0,0,0.033745659722222154,238.78428819444395,0)" xlink:href="#q"/><use transform="matrix(0.033745659722222154,0,0,0.033745659722222154,280.5951605902772,0)" xlink:href="#p"/><use transform="matrix(0.033745659722222154,0,0,0.033745659722222154,320.68500434027715,0)" xlink:href="#s"/><use transform="matrix(0.033745659722222154,0,0,0.033745659722222154,343.294596354166,0)" xlink:href="#B"/><use transform="matrix(0.033745659722222154,0,0,0.033745659722222154,401.8095703124992,0)" xlink:href="#r"/><use transform="matrix(0.033745659722222154,0,0,0.033745659722222154,445.2402343749991,0)" xlink:href="#G"/><use transform="matrix(0.033745659722222154,0,0,0.033745659722222154,486.8148871527768,0)" xlink:href="#u"/><use transform="matrix(0.033745659722222154,0,0,0.033745659722222154,523.1252170138879,0)" xlink:href="#p"/><use transform="matrix(0.033745659722222154,0,0,0.033745659722222154,563.2150607638878,0)" xlink:href="#w"/><use transform="matrix(0.033745659722222154,0,0,0.033745659722222154,606.2070312499987,0)" xlink:href="#H"/><use transform="matrix(0.033745659722222154,0,0,0.033745659722222154,647.7479383680542,0)" xlink:href="#s"/><use transform="matrix(0.033745659722222154,0,0,0.033745659722222154,670.357530381943,0)" xlink:href="#t"/><use transform="matrix(0.033745659722222154,0,0,0.033745659722222154,716.2178819444429,0)" xlink:href="#s"/><use transform="matrix(0.033745659722222154,0,0,0.033745659722222154,738.8274739583318,0)" xlink:href="#q"/><use transform="matrix(0.033745659722222154,0,0,0.033745659722222154,780.6383463541649,0)" xlink:href="#r"/><use transform="matrix(0.033745659722222154,0,0,0.033745659722222154,824.0690104166648,0)" xlink:href="#I"/><use transform="matrix(0.033745659722222154,0,0,0.033745659722222154,866.4198133680536,0)" xlink:href="#C"/><use transform="matrix(0.033745659722222154,0,0,0.033745659722222154,910.4241536458313,0)" xlink:href="#r"/><use transform="matrix(0.033745659722222154,0,0,0.033745659722222154,953.8548177083312,0)" xlink:href="#p"/><use transform="matrix(0.033745659722222154,0,0,0.033745659722222154,993.9446614583311,0)" xlink:href="#r"/><use transform="matrix(0.033745659722222154,0,0,0.033745659722222154,1037.375325520831,0)" xlink:href="#D"/><use transform="matrix(0.033745659722222154,0,0,0.033745659722222154,1060.28862847222,0)" xlink:href="#E"/></g><path d="M743-115c200-5 257-179 257-383v-627c0-8-10-18-32-30s-57-23-105-32v-73h450v73c-45 9-80 20-103 31s-35 22-35 31v601c-2 264-110 436-295 516-60 25-127 38-199 38-309 0-501-160-501-474v-681c0-8-10-18-32-30s-57-23-105-32v-73h525v73c-45 9-80 20-103 31s-35 22-35 31v616c0 238 75 400 313 394" id="J"/><path d="M644-1140c-115-71-322-32-312 118 8 121 112 163 201 211 153 82 329 146 407 303 48 97 22 239-26 316C821-43 638 56 388 23 288 10 187-22 116-68c-27-84-10-232 8-316l71 5c44 110 112 202 218 247 31 13 64 19 98 19 132 0 232-64 232-196 0-191-180-234-315-303-146-75-316-135-316-348 0-157 120-245 251-296 162-62 445-37 543 58 4 63-40 124-67 170-6 11-14 18-19 23l-66-6c-26-57-62-99-110-129" id="K"/><g id="i"><use transform="matrix(0.033745659722222154,0,0,0.033745659722222154,0,0)" xlink:href="#J"/><use transform="matrix(0.033745659722222154,0,0,0.033745659722222154,46.19780815972213,0)" xlink:href="#K"/><use transform="matrix(0.033745659722222154,0,0,0.033745659722222154,81.6307508680554,0)" xlink:href="#u"/><use transform="matrix(0.033745659722222154,0,0,0.033745659722222154,117.94108072916643,0)" xlink:href="#q"/></g><path d="M835-895c0-223-165-306-405-287v1048c11 29 46 34 83 44 22 6 50 11 85 17V0H43v-73c45-9 80-20 103-31s34-21 34-30v-1024c-47 6-93 13-137 20l-13-92c266-56 702-113 915 31 82 54 142 136 142 263 0 233-144 351-331 404-86 24-194 10-261-18l-31-105c48 22 79 30 139 30 154 0 232-108 232-270" id="L"/><g id="j"><use transform="matrix(0.033745659722222154,0,0,0.033745659722222154,0,0)" xlink:href="#v"/><use transform="matrix(0.033745659722222154,0,0,0.033745659722222154,29.122504340277718,0)" xlink:href="#L"/><use transform="matrix(0.033745659722222154,0,0,0.033745659722222154,68.30121527777764,0)" xlink:href="#q"/><use transform="matrix(0.033745659722222154,0,0,0.033745659722222154,110.11208767361089,0)" xlink:href="#w"/><use transform="matrix(0.033745659722222154,0,0,0.033745659722222154,153.10405815972192,0)" xlink:href="#F"/><use transform="matrix(0.033745659722222154,0,0,0.033745659722222154,199.03190104166626,0)" xlink:href="#s"/><use transform="matrix(0.033745659722222154,0,0,0.033745659722222154,221.6414930555551,0)" xlink:href="#C"/><use transform="matrix(0.033745659722222154,0,0,0.033745659722222154,265.6458333333328,0)" xlink:href="#u"/><use transform="matrix(0.033745659722222154,0,0,0.033745659722222154,301.95616319444383,0)" xlink:href="#K"/><use transform="matrix(0.033745659722222154,0,0,0.033745659722222154,337.3891059027771,0)" xlink:href="#r"/><use transform="matrix(0.033745659722222154,0,0,0.033745659722222154,380.81976996527703,0)" xlink:href="#B"/><use transform="matrix(0.033745659722222154,0,0,0.033745659722222154,439.33474392361023,0)" xlink:href="#L"/><use transform="matrix(0.033745659722222154,0,0,0.033745659722222154,478.5134548611102,0)" xlink:href="#x"/><use transform="matrix(0.033745659722222154,0,0,0.033745659722222154,513.7101779513879,0)" xlink:href="#u"/><use transform="matrix(0.033745659722222154,0,0,0.033745659722222154,550.020507812499,0)" xlink:href="#D"/><use transform="matrix(0.033745659722222154,0,0,0.033745659722222154,572.9338107638878,0)" xlink:href="#E"/></g><path d="M764-137c215-118 232-634 88-861-52-83-127-162-248-162-247 0-296 255-296 519 0 222 74 401 204 495 73 53 173 53 252 9zm464 267c66 0 93-40 140-70l49 65c-41 74-93 141-157 187-39 28-85 15-132 0-185-61-307-202-472-286C348 50 175-135 94-368c-55-158-51-348 6-503 59-162 167-290 314-364 138-70 341-74 475-1 189 104 309 307 309 589 0 233-97 398-219 517-45 43-94 77-147 104 107 38 198 102 304 139 31 11 62 17 92 17" id="M"/><g id="k"><use transform="matrix(0.033745659722222154,0,0,0.033745659722222154,0,0)" xlink:href="#v"/><use transform="matrix(0.033745659722222154,0,0,0.033745659722222154,29.122504340277718,0)" xlink:href="#q"/><use transform="matrix(0.033745659722222154,0,0,0.033745659722222154,70.93337673611097,0)" xlink:href="#u"/><use transform="matrix(0.033745659722222154,0,0,0.033745659722222154,107.243706597222,0)" xlink:href="#M"/><use transform="matrix(0.033745659722222154,0,0,0.033745659722222154,150.23567708333303,0)" xlink:href="#J"/><use transform="matrix(0.033745659722222154,0,0,0.033745659722222154,196.43348524305512,0)" xlink:href="#u"/><use transform="matrix(0.033745659722222154,0,0,0.033745659722222154,232.74381510416617,0)" xlink:href="#K"/><use transform="matrix(0.033745659722222154,0,0,0.033745659722222154,268.17675781249943,0)" xlink:href="#p"/><use transform="matrix(0.033745659722222154,0,0,0.033745659722222154,308.2666015624994,0)" xlink:href="#p"/><use transform="matrix(0.033745659722222154,0,0,0.033745659722222154,348.3564453124993,0)" xlink:href="#w"/><use transform="matrix(0.033745659722222154,0,0,0.033745659722222154,391.34841579861035,0)" xlink:href="#K"/><use transform="matrix(0.033745659722222154,0,0,0.033745659722222154,426.7813585069436,0)" xlink:href="#r"/><use transform="matrix(0.033745659722222154,0,0,0.033745659722222154,470.21202256944355,0)" xlink:href="#B"/><use transform="matrix(0.033745659722222154,0,0,0.033745659722222154,528.7269965277768,0)" xlink:href="#L"/><use transform="matrix(0.033745659722222154,0,0,0.033745659722222154,567.9057074652767,0)" xlink:href="#x"/><use transform="matrix(0.033745659722222154,0,0,0.033745659722222154,603.1024305555545,0)" xlink:href="#u"/><use transform="matrix(0.033745659722222154,0,0,0.033745659722222154,639.4127604166655,0)" xlink:href="#D"/><use transform="matrix(0.033745659722222154,0,0,0.033745659722222154,662.3260633680543,0)" xlink:href="#E"/></g><path fill="#fff" d="M118-107v75H92v-75H18v-26h74v-75h26v75h74v26h-74" id="N"/><use transform="matrix(0.18580246913580212,0,0,0.18580246913580212,0,0)" xlink:href="#N" id="l"/><path fill="#fff" d="M27 0v-27h64v-190l-56 39v-29l58-41h29v221h61V0H27" id="O"/><path fill="#fff" d="M33 0v-38h34V0H33" id="P"/><path fill="#fff" d="M80-196l47-18 7 23-49 13 32 44-20 13-27-46-27 45-21-12 33-44-49-13 8-23 47 19-2-53h23" id="Q"/><g id="m"><use transform="matrix(0.18580246913580212,0,0,0.18580246913580212,0,0)" xlink:href="#O"/><use transform="matrix(0.18580246913580212,0,0,0.18580246913580212,37.16049382716042,0)" xlink:href="#P"/><use transform="matrix(0.18580246913580212,0,0,0.18580246913580212,55.740740740740634,0)" xlink:href="#P"/><use transform="matrix(0.18580246913580212,0,0,0.18580246913580212,74.32098765432085,0)" xlink:href="#Q"/></g><path fill="#fff" d="M14 0l48-248h34L48 0H14" id="R"/><path fill="#fff" d="M173 0L80-213 41 0H11l48-248h37l94 214 40-214h30L212 0h-39" id="S"/><path fill="#fff" d="M151-220L108 0H75l42-220H32l6-28h203l-5 28h-85" id="T"/><path fill="#fff" d="M11 0l48-248h184l-5 28H87l-15 79h140l-5 27H67L50-27h158l-5 27H11" id="U"/><path fill="#fff" d="M249-183c0 48-29 72-75 77L221 0h-36l-43-103H65L45 0H11l48-248c83 2 190-17 190 65zm-34 3c0-55-74-39-127-41l-18 92c63-1 145 13 145-51" id="V"/><path fill="#fff" d="M187 0l-14-72H61L19 0h-37l149-248h38L221 0h-34zm-19-99l-22-123L76-99h92" id="W"/><path fill="#fff" d="M125-24c46 0 70-25 89-51l25 16C214-24 183 4 123 4 8 4-5-146 60-208c32-50 158-61 191-5 5 7 9 14 11 22l-32 10c-9-28-33-43-69-43-74 0-108 51-108 125 0 46 24 75 72 75" id="X"/><path fill="#fff" d="M194-120c59 52 2 134-86 124-53-6-90-18-98-63l31-7c8 30 29 43 70 43 46 0 84-17 71-62-32-43-135-20-137-98-3-89 178-90 191-16l-30 9c-8-48-127-53-127 5 0 53 81 35 115 65" id="Y"/><g id="n"><use transform="matrix(0.18580246913580212,0,0,0.18580246913580212,0,0)" xlink:href="#R"/><use transform="matrix(0.18580246913580212,0,0,0.18580246913580212,18.58024691358021,0)" xlink:href="#S"/><use transform="matrix(0.18580246913580212,0,0,0.18580246913580212,66.70308641975296,0)" xlink:href="#T"/><use transform="matrix(0.18580246913580212,0,0,0.18580246913580212,107.39382716049363,0)" xlink:href="#U"/><use transform="matrix(0.18580246913580212,0,0,0.18580246913580212,151.98641975308612,0)" xlink:href="#V"/><use transform="matrix(0.18580246913580212,0,0,0.18580246913580212,200.1092592592589,0)" xlink:href="#W"/><use transform="matrix(0.18580246913580212,0,0,0.18580246913580212,244.70185185185136,0)" xlink:href="#X"/><use transform="matrix(0.18580246913580212,0,0,0.18580246913580212,292.8246913580241,0)" xlink:href="#T"/><use transform="matrix(0.18580246913580212,0,0,0.18580246913580212,333.5154320987648,0)" xlink:href="#Y"/></g><path fill="#fff" d="M247 0h-39l-15-214-24 57L95 0H56L31-248h35L82-30l101-218h33l16 218 101-218h35" id="Z"/><path fill="#fff" d="M179 0l23-115H67L45 0H11l48-248h34L72-143h135l21-105h32L212 0h-33" id="aa"/><g id="o"><use transform="matrix(0.18580246913580212,0,0,0.18580246913580212,0,0)" xlink:href="#Z"/><use transform="matrix(0.18580246913580212,0,0,0.18580246913580212,62.98703703703692,0)" xlink:href="#R"/><use transform="matrix(0.18580246913580212,0,0,0.18580246913580212,81.56728395061714,0)" xlink:href="#T"/><use transform="matrix(0.18580246913580212,0,0,0.18580246913580212,122.25802469135779,0)" xlink:href="#aa"/></g></defs></g></svg>